<svg width="498" height="105" viewBox="0 0 498 105" fill="none" xmlns="http://www.w3.org/2000/svg">
<g clip-path="url(#clip0_1_79)">
<g clip-path="url(#clip1_1_79)">
<path d="M36.75 0H11.25C5.0368 0 0 5.0368 0 11.25V36.75C0 42.9632 5.0368 48 11.25 48H36.75C42.9632 48 48 42.9632 48 36.75V11.25C48 5.0368 42.9632 0 36.75 0Z" fill="#F0DB4F"/>
<path d="M12.6209 40.1122L16.2942 37.8892C17.0029 39.1457 17.6475 40.2088 19.1938 40.2088C20.676 40.2088 21.6105 39.6291 21.6105 37.3738V22.0367H26.1214V37.4376C26.1214 42.1095 23.3827 44.2361 19.3871 44.2361C15.7787 44.2361 13.6841 42.3673 12.6208 40.1119" fill="#323330"/>
<path d="M28.5714 39.6289L32.2442 37.5024C33.2111 39.0814 34.4677 40.2412 36.6907 40.2412C38.5599 40.2412 39.7517 39.3067 39.7517 38.0179C39.7517 36.4714 38.5273 35.9235 36.4652 35.0216L35.3377 34.5381C32.0833 33.1528 29.9244 31.4128 29.9244 27.7397C29.9244 24.3564 32.5022 21.7787 36.5299 21.7787C39.3975 21.7787 41.4596 22.7777 42.9416 25.3875L39.4295 27.6429C38.6561 26.2575 37.8187 25.7098 36.5299 25.7098C35.2087 25.7098 34.371 26.5476 34.371 27.6429C34.371 28.9961 35.2087 29.544 37.1418 30.3819L38.2695 30.8651C42.1037 32.5086 44.2625 34.1837 44.2625 37.9534C44.2625 42.0135 41.0728 44.2365 36.7875 44.2365C32.5989 44.2365 29.8923 42.2389 28.5714 39.6289Z" fill="#323330"/>
</g>
<g clip-path="url(#clip2_1_79)">
<path d="M93 0H67.5C61.2868 0 56.25 5.0368 56.25 11.25V36.75C56.25 42.9632 61.2868 48 67.5 48H93C99.2132 48 104.25 42.9632 104.25 36.75V11.25C104.25 5.0368 99.2132 0 93 0Z" fill="#E14E1D"/>
<path d="M65.25 7.125L66.8643 25.2362H87.6225L86.9259 33.0043L80.2423 34.8114L73.5712 33.0069L73.1252 28.0191H67.1135L67.9732 37.6343L80.2408 41.0415L92.5239 37.6343L94.1707 19.2478H72.342L71.7939 13.1147H94.6952H94.7136L95.25 7.125H65.25Z" fill="white"/>
<path d="M80.25 7.125H65.25L66.8643 25.2362H80.25V19.2478H72.342L71.7939 13.1146H80.25V7.125Z" fill="#EBEBEB"/>
<path d="M80.25 34.8088L80.2423 34.8114L73.5712 33.0069L73.1252 28.0191H67.1135L67.9732 37.6343L80.2408 41.0415L80.25 41.0389V34.8088Z" fill="#EBEBEB"/>
</g>
<g clip-path="url(#clip3_1_79)">
<path d="M149.25 0H123.75C117.537 0 112.5 5.0368 112.5 11.25V36.75C112.5 42.9632 117.537 48 123.75 48H149.25C155.463 48 160.5 42.9632 160.5 36.75V11.25C160.5 5.0368 155.463 0 149.25 0Z" fill="#0277BD"/>
<path d="M122.579 19.2471L123.115 25.2362H136.518V19.2471H122.579Z" fill="#EBEBEB"/>
<path d="M136.518 7.125H136.497H121.5L122.044 13.1142H136.518V7.125Z" fill="#EBEBEB"/>
<path d="M136.518 41.0327V34.8015L136.492 34.8084L129.821 33.0075L129.395 28.2307H126.154H123.383L124.222 37.6346L136.49 41.0404L136.518 41.0327Z" fill="#EBEBEB"/>
<path d="M143.872 25.2362L143.177 33.0036L136.497 34.8066V41.0374L148.775 37.6346L148.865 36.6227L150.273 20.8554L150.419 19.2471L151.5 7.125H136.497V13.1142H144.936L144.392 19.2471H136.497V25.2362H143.872Z" fill="white"/>
</g>
<g clip-path="url(#clip4_1_79)">
<path d="M205.5 0H180C173.787 0 168.75 5.0368 168.75 11.25V36.75C168.75 42.9632 173.787 48 180 48H205.5C211.713 48 216.75 42.9632 216.75 36.75V11.25C216.75 5.0368 211.713 0 205.5 0Z" fill="#242938"/>
<path fill-rule="evenodd" clip-rule="evenodd" d="M184.312 20.625C185.437 16.1252 188.25 13.875 192.75 13.875C199.5 13.875 200.344 18.9375 203.719 19.7812C205.969 20.3439 207.938 19.5002 209.625 17.25C208.5 21.7498 205.687 24 201.188 24C194.438 24 193.594 18.9375 190.219 18.0938C187.969 17.5311 186 18.3748 184.312 20.625ZM175.875 30.75C177 26.2502 179.813 24 184.312 24C191.062 24 191.906 29.0625 195.281 29.9062C197.531 30.4689 199.5 29.6252 201.188 27.375C200.063 31.8748 197.25 34.125 192.75 34.125C186 34.125 185.156 29.0625 181.781 28.2188C179.531 27.6561 177.562 28.4998 175.875 30.75Z" fill="url(#paint0_linear_1_79)"/>
</g>
<g clip-path="url(#clip5_1_79)">
<path d="M261.75 0H236.25C230.037 0 225 5.0368 225 11.25V36.75C225 42.9632 230.037 48 236.25 48H261.75C267.963 48 273 42.9632 273 36.75V11.25C273 5.0368 267.963 0 261.75 0Z" fill="url(#paint1_linear_1_79)"/>
<g filter="url(#filter0_d_1_79)">
<path d="M249.744 36.7794C255.309 36.7794 258.662 34.0549 258.662 29.5613C258.662 26.1643 256.269 23.7052 252.717 23.3158V23.1744C255.327 22.7498 257.375 20.3259 257.375 17.6192C257.375 13.7624 254.33 11.25 249.69 11.25H239.25V36.7794H249.744ZM243.31 14.4876H248.711C251.648 14.4876 253.315 15.7968 253.315 18.1675C253.315 20.6976 251.376 22.1128 247.859 22.1128H243.31V14.4876ZM243.31 33.5419V25.1383H248.675C252.518 25.1383 254.511 26.5536 254.511 29.3136C254.511 32.0734 252.572 33.5419 248.911 33.5419H243.31Z" fill="url(#paint2_linear_1_79)"/>
<path d="M249.744 36.7794C255.309 36.7794 258.662 34.0549 258.662 29.5613C258.662 26.1643 256.269 23.7052 252.717 23.3158V23.1744C255.327 22.7498 257.375 20.3259 257.375 17.6192C257.375 13.7624 254.33 11.25 249.69 11.25H239.25V36.7794H249.744ZM243.31 14.4876H248.711C251.648 14.4876 253.315 15.7968 253.315 18.1675C253.315 20.6976 251.376 22.1128 247.859 22.1128H243.31V14.4876ZM243.31 33.5419V25.1383H248.675C252.518 25.1383 254.511 26.5536 254.511 29.3136C254.511 32.0734 252.572 33.5419 248.911 33.5419H243.31Z" stroke="white" stroke-width="0.375"/>
</g>
</g>
<g clip-path="url(#clip6_1_79)">
<path d="M318 0H292.5C286.287 0 281.25 5.0368 281.25 11.25V36.75C281.25 42.9632 286.287 48 292.5 48H318C324.213 48 329.25 42.9632 329.25 36.75V11.25C329.25 5.0368 324.213 0 318 0Z" fill="#242938"/>
<path d="M305.25 27.5533C307.182 27.5533 308.748 25.9871 308.748 24.0553C308.748 22.1235 307.182 20.5573 305.25 20.5573C303.318 20.5573 301.752 22.1235 301.752 24.0553C301.752 25.9871 303.318 27.5533 305.25 27.5533Z" fill="#00D8FF"/>
<path fill-rule="evenodd" clip-rule="evenodd" d="M305.25 16.9431C309.947 16.9431 314.31 17.617 317.599 18.7495C321.563 20.1141 324 22.1824 324 24.0553C324 26.007 321.417 28.2043 317.161 29.6145C313.943 30.6806 309.709 31.2371 305.25 31.2371C300.679 31.2371 296.351 30.7147 293.097 29.6027C288.98 28.1955 286.5 25.9699 286.5 24.0553C286.5 22.1976 288.827 20.1452 292.735 18.7828C296.037 17.6316 300.507 16.9431 305.25 16.9431H305.25Z" stroke="#00D8FF" stroke-width="1.67081"/>
<path fill-rule="evenodd" clip-rule="evenodd" d="M299.059 20.5196C301.405 16.4513 304.169 13.0084 306.793 10.7245C309.955 7.97261 312.965 6.8949 314.587 7.83043C316.277 8.80543 316.891 12.1406 315.986 16.5321C315.303 19.8523 313.669 23.7984 311.441 27.6606C309.158 31.6202 306.543 35.1088 303.954 37.3716C300.679 40.2351 297.512 41.2714 295.853 40.3149C294.244 39.3876 293.628 36.3461 294.4 32.2802C295.053 28.8446 296.69 24.6279 299.058 20.5196H299.059Z" stroke="#00D8FF" stroke-width="1.67081"/>
<path fill-rule="evenodd" clip-rule="evenodd" d="M299.065 27.6709C296.712 23.607 295.11 19.4929 294.441 16.0784C293.636 11.9645 294.205 8.81916 295.826 7.88091C297.515 6.90306 300.711 8.03738 304.064 11.0144C306.599 13.2652 309.202 16.651 311.436 20.5093C313.726 24.4652 315.442 28.473 316.11 31.8458C316.955 36.114 316.271 39.3752 314.614 40.3343C313.006 41.265 310.064 40.2797 306.927 37.5801C304.277 35.2993 301.441 31.7753 299.065 27.6709Z" stroke="#00D8FF" stroke-width="1.67081"/>
</g>
<g clip-path="url(#clip7_1_79)">
<path d="M374.25 0H348.75C342.537 0 337.5 5.0368 337.5 11.25V36.75C337.5 42.9632 342.537 48 348.75 48H374.25C380.463 48 385.5 42.9632 385.5 36.75V11.25C385.5 5.0368 380.463 0 374.25 0Z" fill="#242938"/>
<path d="M380.079 10.8003L362.486 42.2604C362.122 42.9101 361.189 42.9139 360.82 42.2676L342.878 10.8033C342.476 10.0989 343.079 9.24571 343.877 9.3884L361.489 12.5365C361.601 12.5566 361.717 12.5564 361.829 12.5359L379.073 9.3929C379.868 9.24791 380.474 10.0945 380.079 10.8003Z" fill="url(#paint3_linear_1_79)"/>
<path d="M369.879 5.25923L356.859 7.81039C356.645 7.85232 356.487 8.03367 356.474 8.25132L355.673 21.7778C355.654 22.0963 355.947 22.3436 356.257 22.2718L359.882 21.4354C360.222 21.3572 360.528 21.6559 360.458 21.9969L359.381 27.2706C359.309 27.6255 359.642 27.9289 359.989 27.8237L362.228 27.1434C362.575 27.0381 362.908 27.3424 362.835 27.6977L361.123 35.9813C361.016 36.4995 361.705 36.7821 361.993 36.3377L362.185 36.0411L372.794 14.8686C372.972 14.5141 372.665 14.1099 372.276 14.185L368.545 14.9051C368.194 14.9727 367.896 14.6462 367.995 14.3031L370.43 5.86092C370.529 5.51728 370.23 5.19047 369.879 5.25923Z" fill="url(#paint4_linear_1_79)"/>
</g>
<g clip-path="url(#clip8_1_79)">
<path d="M430.5 0H405C398.787 0 393.75 5.0368 393.75 11.25V36.75C393.75 42.9632 398.787 48 405 48H430.5C436.713 48 441.75 42.9632 441.75 36.75V11.25C441.75 5.0368 436.713 0 430.5 0Z" fill="#242938"/>
<path d="M436.5 34.3007C435.954 34.5075 435.352 34.5069 434.806 34.2995C434.261 34.092 433.81 33.6919 433.539 33.1747C431.84 30.6309 429.963 28.2019 428.16 25.7207L427.378 24.6782C425.23 27.5556 423.083 30.3182 421.123 33.1852C420.867 33.6795 420.441 34.0641 419.923 34.2673C419.405 34.4707 418.831 34.4788 418.308 34.2904L426.367 23.4793L418.871 13.7107C419.41 13.5158 420.001 13.5132 420.542 13.7031C421.083 13.893 421.542 14.2639 421.842 14.7532C423.583 17.297 425.512 19.7261 427.43 22.3012C429.359 19.7469 431.267 17.3074 433.049 14.7845C433.306 14.2983 433.733 13.9234 434.248 13.7311C434.763 13.5389 435.331 13.5428 435.843 13.7419L432.935 17.5993C431.631 19.3194 430.349 21.0501 428.994 22.7285C428.885 22.8264 428.797 22.9461 428.737 23.0799C428.678 23.2138 428.647 23.3587 428.647 23.5054C428.647 23.6518 428.678 23.7967 428.737 23.9306C428.797 24.0645 428.885 24.1841 428.994 24.282C431.486 27.5869 433.956 30.9021 436.5 34.3007Z" fill="white"/>
<path d="M399 23.3438C399.219 22.3013 399.354 21.1648 399.657 20.1015C401.46 13.6899 408.81 11.021 413.866 14.9931C416.827 17.318 417.568 20.6124 417.422 24.3238H400.741C400.47 30.9544 405.255 34.9577 411.375 32.9143C412.368 32.5592 413.256 31.9626 413.961 31.1781C414.665 30.3936 415.163 29.4459 415.409 28.4209C415.733 27.3784 416.254 27.2012 417.244 27.5034C417.081 28.7726 416.632 29.9884 415.932 31.0592C415.231 32.13 414.297 33.0279 413.199 33.6857C411.386 34.6776 409.305 35.0704 407.255 34.8083C405.204 34.5461 403.289 33.6424 401.784 32.2262C400.294 30.5513 399.393 28.4351 399.219 26.2003C399.219 25.8459 399.083 25.4914 399.01 25.1578C399.003 24.5393 399 23.9346 399 23.3438ZM400.762 22.8954H415.847C415.753 18.0894 412.72 14.6803 408.675 14.6491C404.171 14.5865 400.95 17.9226 400.751 22.8746L400.762 22.8954Z" fill="white"/>
</g>
<g clip-path="url(#clip9_1_79)">
<path d="M486.75 0H461.25C455.037 0 450 5.0368 450 11.25V36.75C450 42.9632 455.037 48 461.25 48H486.75C492.963 48 498 42.9632 498 36.75V11.25C498 5.0368 492.963 0 486.75 0Z" fill="#242938"/>
<path d="M472.477 5.83432C473.399 5.3064 474.601 5.30405 475.522 5.83432C480.157 8.45353 484.794 11.0687 489.429 13.6895C490.301 14.1805 490.884 15.1507 490.875 16.1551V31.9136C490.881 32.9597 490.241 33.9531 489.321 34.4329C484.701 37.0378 480.083 39.6457 475.463 42.2507C474.522 42.7888 473.297 42.7474 472.385 42.165C471 41.3621 469.613 40.563 468.227 39.7609C467.944 39.5921 467.625 39.4579 467.425 39.1834C467.602 38.9452 467.918 38.9156 468.175 38.8116C468.753 38.6276 469.284 38.3325 469.815 38.0462C469.949 37.9543 470.113 37.9896 470.242 38.0717C471.426 38.7508 472.601 39.4498 473.789 40.1224C474.042 40.2688 474.299 40.0744 474.516 39.9536C479.05 37.3911 483.589 34.8384 488.122 32.2751C488.29 32.1943 488.383 32.016 488.369 31.8321C488.372 26.6336 488.37 21.4344 488.371 16.236C488.39 16.0272 488.269 15.8353 488.081 15.7498C483.476 13.1569 478.874 10.5601 474.271 7.96654C474.108 7.85424 473.892 7.85396 473.729 7.96569C469.125 10.5601 464.524 13.1593 459.921 15.7521C459.733 15.8377 459.607 16.0265 459.629 16.236C459.63 21.4344 459.629 26.6336 459.629 31.8328C459.613 32.0167 459.713 32.1913 459.879 32.2704C461.108 32.967 462.338 33.6587 463.567 34.353C464.26 34.7256 465.11 34.9472 465.873 34.6616C466.546 34.4201 467.018 33.7329 467.005 33.0182C467.012 27.8501 467.002 22.6813 467.01 17.514C466.993 17.2845 467.211 17.095 467.434 17.1166C468.024 17.1126 468.615 17.1086 469.205 17.1182C469.452 17.1126 469.621 17.3596 469.591 17.5908C469.589 22.7916 469.597 27.9924 469.587 33.1931C469.589 34.5793 469.019 36.0876 467.737 36.7657C466.158 37.5838 464.205 37.4104 462.645 36.6259C461.294 35.9516 460.005 35.1559 458.678 34.4336C457.756 33.9564 457.119 32.9591 457.125 31.9138V16.1551C457.115 15.1299 457.722 14.1421 458.621 13.6583C463.24 11.0514 467.859 8.44239 472.477 5.83432Z" fill="#81CD39"/>
<path d="M476.507 16.7503C478.522 16.6206 480.679 16.6735 482.492 17.666C483.895 18.4266 484.674 20.0229 484.698 21.5824C484.659 21.7926 484.439 21.9086 484.238 21.8942C483.654 21.8934 483.069 21.9022 482.485 21.8902C482.237 21.8998 482.093 21.6712 482.062 21.4521C481.894 20.7058 481.486 19.9669 480.784 19.6069C479.706 19.0672 478.456 19.0944 477.281 19.1057C476.422 19.1511 475.5 19.2255 474.772 19.7301C474.214 20.1124 474.045 20.8841 474.244 21.5057C474.432 21.9519 474.947 22.0959 475.369 22.2287C477.796 22.8637 480.369 22.8004 482.751 23.6361C483.737 23.9767 484.702 24.6392 485.039 25.6716C485.481 27.0553 485.287 28.7091 484.303 29.8198C483.504 30.7339 482.341 31.2315 481.182 31.5017C479.639 31.8457 478.038 31.8546 476.471 31.7017C474.998 31.5337 473.465 31.1467 472.328 30.1431C471.355 29.2986 470.88 27.9827 470.927 26.7129C470.938 26.4984 471.152 26.3488 471.358 26.3664C471.946 26.3617 472.535 26.3601 473.123 26.3674C473.359 26.3505 473.533 26.5537 473.545 26.7754C473.653 27.4862 473.921 28.2324 474.541 28.6537C475.737 29.4257 477.238 29.3728 478.608 29.3944C479.743 29.3441 481.017 29.3289 481.943 28.5787C482.432 28.1509 482.577 27.435 482.445 26.8192C482.302 26.2993 481.758 26.0571 481.291 25.8986C478.894 25.1406 476.292 25.4156 473.918 24.5582C472.955 24.2177 472.023 23.5738 471.653 22.5838C471.136 21.1826 471.373 19.4494 472.46 18.3761C473.521 17.3085 475.052 16.8974 476.507 16.7503Z" fill="#81CD39"/>
</g>
<g clip-path="url(#clip10_1_79)">
<path d="M36.75 56.25H11.25C5.0368 56.25 0 61.2868 0 67.5V93C0 99.2132 5.0368 104.25 11.25 104.25H36.75C42.9632 104.25 48 99.2132 48 93V67.5C48 61.2868 42.9632 56.25 36.75 56.25Z" fill="#023430"/>
<path d="M32.0949 76.4233C30.1193 67.7081 26.0018 65.3879 24.9514 63.7479C24.5183 63.0254 24.1344 62.2744 23.8029 61.5C23.7474 62.2742 23.6454 62.762 22.9873 63.3491C21.666 64.5273 16.0541 69.1004 15.5818 79.0028C15.1418 88.2356 22.3693 93.9287 23.3241 94.5173C24.0583 94.8786 24.9525 94.5249 25.3888 94.1932C28.8728 91.8022 33.633 85.4276 32.0987 76.4233" fill="#10AA50"/>
<path d="M24.1022 89.6008C23.9203 91.8861 23.79 93.214 23.328 94.5199C23.328 94.5199 23.6312 96.6955 23.8442 99H24.5978C24.7776 97.3772 25.0519 95.7662 25.4198 94.1753C24.4442 93.6953 24.1397 91.6061 24.1022 89.6008Z" fill="#B8C4C2"/>
<path d="M25.4184 94.1766C24.4325 93.7211 24.1473 91.5879 24.1035 89.6008C24.3472 86.3227 24.4183 83.0342 24.3165 79.7486C24.2647 78.0247 24.3408 63.7814 23.8918 61.6961C24.1991 62.4024 24.5529 63.0874 24.9513 63.7466C26.0017 65.388 30.1205 67.7081 32.0949 76.4233C33.633 85.4122 28.8986 91.77 25.4184 94.1766Z" fill="#12924F"/>
</g>
<g clip-path="url(#clip11_1_79)">
<path d="M93 56.25H67.5C61.2868 56.25 56.25 61.2868 56.25 67.5V93C56.25 99.2132 61.2868 104.25 67.5 104.25H93C99.2132 104.25 104.25 99.2132 104.25 93V67.5C104.25 61.2868 99.2132 56.25 93 56.25Z" fill="#242938"/>
<mask id="mask0_1_79" style="mask-type:luminance" maskUnits="userSpaceOnUse" x="63" y="63" width="35" height="35">
<path d="M97.125 63.375H63.375V97.125H97.125V63.375Z" fill="white"/>
</mask>
<g mask="url(#mask0_1_79)">
<path fill-rule="evenodd" clip-rule="evenodd" d="M94.4627 89.6644C92.6271 89.6134 91.203 89.8014 90.0096 90.3036C89.6659 90.4416 89.1144 90.4416 89.0691 90.8741C89.2528 91.0556 89.2749 91.3526 89.436 91.6042C89.7111 92.0608 90.1937 92.6758 90.6294 92.9949L92.0983 94.0446C92.9934 94.5915 94.0033 94.9112 94.8754 95.4587C95.3805 95.7782 95.8853 96.1888 96.3904 96.5314C96.6476 96.7138 96.8034 97.011 97.125 97.1244V97.0554C96.9645 96.8509 96.9182 96.5544 96.7583 96.3253L96.0688 95.6642C95.4038 94.7747 94.5769 93.9984 93.6818 93.3604C92.9471 92.8584 91.341 92.1742 91.0425 91.3307L90.9973 91.2795C91.5015 91.2285 92.0983 91.0509 92.5808 90.9141C93.3617 90.7095 94.0727 90.7545 94.8754 90.5494L95.9779 90.2299V90.0253C95.5646 89.6149 95.2663 89.0672 94.8306 88.6798C93.6602 87.6761 92.3739 86.6949 91.0425 85.8739C90.3311 85.4179 89.4128 85.1207 88.6554 84.7337C88.3793 84.5966 87.9208 84.5282 87.7603 84.3002C87.3461 83.7992 87.1172 83.1369 86.8189 82.5435L84.9369 78.5745C84.5239 77.6848 84.2708 76.7951 83.7666 75.9741C81.402 72.0961 78.8308 69.7468 74.8828 67.4425C74.0339 66.9634 73.0241 66.7574 71.9504 66.5068L70.229 66.4148C69.8612 66.2553 69.4943 65.8217 69.1728 65.6162C67.8645 64.7951 64.4902 63.0159 63.5255 65.3606C62.9056 66.8433 64.4439 68.3029 64.966 69.0561C65.357 69.5806 65.8612 70.1737 66.1375 70.7668C66.2918 71.1543 66.3433 71.5654 66.5043 71.9759C66.8711 72.9795 67.2158 74.0977 67.6978 75.0334C67.9551 75.5124 68.2252 76.0149 68.5467 76.4481C68.7304 76.7036 69.0519 76.8131 69.1203 77.2236C68.7988 77.6801 68.7767 78.3637 68.593 78.9349C67.7663 81.5126 68.0878 84.7061 69.2582 86.604C69.626 87.174 70.4929 88.4291 71.669 87.9497C72.702 87.5391 72.4715 86.2389 72.7699 85.0982C72.8394 84.8248 72.7931 84.6422 72.9304 84.4592V84.5104L73.8719 86.4036C74.5834 87.5212 75.8233 88.6849 76.8557 89.4609C77.4062 89.8716 77.8425 90.5792 78.5308 90.8297V90.7607H78.4856C78.3476 90.5561 78.1408 90.4641 77.9573 90.3045C77.5442 89.8941 77.0852 89.3919 76.7636 88.9359C75.8001 87.6587 74.9512 86.244 74.1934 84.7843C73.8256 84.0772 73.5041 83.3016 73.2067 82.5945C73.0678 82.3206 73.0678 81.9094 72.8389 81.7734C72.4942 82.2744 71.99 82.7091 71.7364 83.3246C71.3001 84.3052 71.2548 85.5144 71.0943 86.7692C71.0017 86.7921 71.0429 86.7692 71.0017 86.8202C70.2681 86.6383 70.015 85.8846 69.7397 85.2465C69.0514 83.6269 68.9361 81.0264 69.5329 79.1557C69.6934 78.6767 70.3828 77.1711 70.1076 76.7149C69.9687 76.2814 69.5108 76.0309 69.2577 75.6883C68.9593 75.2548 68.6388 74.7077 68.432 74.2286C67.8815 72.9504 67.6063 71.5367 67.009 70.2591C66.7327 69.666 66.2512 69.0499 65.8607 68.5029C65.4244 67.8868 64.9434 67.4532 64.5987 66.7236C64.484 66.468 64.3235 66.062 64.5071 65.788C64.5524 65.6055 64.645 65.5323 64.8277 65.4915C65.126 65.2358 65.9759 65.56 66.2743 65.696C67.1232 66.0385 67.8347 66.3576 68.5462 66.8361C68.8677 67.0641 69.2124 67.4977 69.6255 67.6122H70.1081C70.8427 67.7717 71.6684 67.6633 72.3563 67.8678C73.573 68.2564 74.6744 68.826 75.6623 69.4426C78.6688 71.3358 81.1485 74.0277 82.8234 77.2446C83.0987 77.7692 83.2134 78.2482 83.4666 78.7957C83.9492 79.914 84.546 81.0542 85.0269 82.1497C85.5096 83.2219 85.9684 84.3176 86.6569 85.2071C87.0015 85.6862 88.3781 85.9367 88.9976 86.1877C89.457 86.3923 90.168 86.5764 90.5822 86.8269C91.362 87.306 92.1426 87.8535 92.8766 88.3781C93.2434 88.6511 94.3918 89.2217 94.4601 89.6767L94.4627 89.6644ZM71.0547 69.8414C70.7376 69.8386 70.4214 69.8769 70.1143 69.9554V70.0065H70.1595C70.3432 70.3716 70.6647 70.6226 70.8942 70.9421L71.4225 72.0373L71.4678 71.9862C71.7893 71.7581 71.9504 71.3931 71.9504 70.846C71.8125 70.6865 71.7899 70.5265 71.6751 70.3669C71.5373 70.1389 71.2389 70.0244 71.0547 69.8424V69.8414Z" fill="white"/>
</g>
</g>
<g clip-path="url(#clip12_1_79)">
<path d="M149.25 56.25H123.75C117.537 56.25 112.5 61.2868 112.5 67.5V93C112.5 99.2132 117.537 104.25 123.75 104.25H149.25C155.463 104.25 160.5 99.2132 160.5 93V67.5C160.5 61.2868 155.463 56.25 149.25 56.25Z" fill="#242938"/>
<path d="M131.556 90.4911C131.556 90.4911 130.117 91.3675 132.559 91.6181C135.508 91.9939 137.067 91.9311 140.322 91.3054C140.322 91.3054 141.199 91.8696 142.389 92.3074C135.062 95.4379 125.795 92.1195 131.556 90.4911ZM130.617 86.4214C130.617 86.4214 129.052 87.6113 131.494 87.8612C134.686 88.1741 137.192 88.2369 141.512 87.3611C141.512 87.3611 142.076 87.9876 143.015 88.3005C134.187 90.9302 124.293 88.5505 130.617 86.422V86.4214ZM147.899 93.5595C147.899 93.5595 148.963 94.4359 146.709 95.1251C142.514 96.3773 129.114 96.7536 125.358 95.1251C124.043 94.561 126.547 93.7466 127.361 93.6223C128.175 93.4345 128.613 93.4345 128.613 93.4345C127.173 92.4325 119.033 95.5007 124.48 96.3836C139.445 98.8262 151.781 95.3194 147.899 93.5659L147.899 93.5595ZM132.245 82.1631C132.245 82.1631 125.42 83.7915 129.802 84.3544C131.681 84.6043 135.375 84.5423 138.819 84.2916C141.637 84.0415 144.461 83.5403 144.461 83.5403C144.461 83.5403 143.459 83.9786 142.77 84.4166C135.814 86.2341 122.477 85.42 126.297 83.5414C129.554 81.9758 132.245 82.1631 132.245 82.1631ZM144.454 88.9883C151.468 85.3564 148.211 81.8501 145.957 82.2887C145.393 82.4138 145.143 82.5388 145.143 82.5388C145.143 82.5388 145.331 82.1631 145.769 82.0388C150.215 80.4731 153.722 86.7349 144.329 89.1769C144.329 89.1769 144.392 89.1141 144.454 88.989V88.9883ZM132.934 98.8808C139.696 99.3193 150.028 98.6306 150.278 95.4366C150.278 95.4366 149.778 96.6887 144.706 97.6281C138.945 98.6923 131.807 98.5673 127.612 97.878C127.612 97.878 128.488 98.6293 132.934 98.88L132.934 98.8808Z" fill="white"/>
<path d="M140.191 61.5C140.191 61.5 144.073 65.4448 136.497 71.3924C130.423 76.2135 135.119 78.969 136.497 82.0989C132.928 78.9062 130.361 76.0879 132.114 73.458C134.687 69.578 141.762 67.6996 140.191 61.5ZM138.188 79.4704C140.003 81.5366 137.687 83.4152 137.687 83.4152C137.687 83.4152 142.321 81.0366 140.192 78.0926C138.251 75.2749 136.748 73.8972 144.888 69.2004C144.888 69.2004 132.052 72.3932 138.189 79.4691L138.188 79.4704Z" fill="#F58219"/>
</g>
<g clip-path="url(#clip13_1_79)">
<path d="M205.75 56H180.25C174.037 56 169 61.0368 169 67.25V92.75C169 98.9632 174.037 104 180.25 104H205.75C211.963 104 217 98.9632 217 92.75V67.25C217 61.0368 211.963 56 205.75 56Z" fill="#242938"/>
</g>
<g clip-path="url(#clip14_1_79)">
<path fill-rule="evenodd" clip-rule="evenodd" d="M195.869 71.222L195.831 61H190.131L190.169 71.222L193.019 75.136L195.869 71.222ZM190.169 88.74V99H195.869V88.74L193.019 84.826L190.169 88.74Z" fill="white"/>
<path fill-rule="evenodd" clip-rule="evenodd" d="M195.869 88.74L201.873 97.024L206.471 93.68L200.467 85.396L195.869 83.914V88.74ZM190.169 71.222L184.127 62.938L179.529 66.282L185.533 74.566L190.169 76.048V71.222Z" fill="#00F2E6"/>
<path fill-rule="evenodd" clip-rule="evenodd" d="M185.533 74.566L175.805 71.412L174.057 76.808L183.785 80L188.383 78.48L185.533 74.566ZM197.617 81.482L200.467 85.396L210.195 88.55L211.943 83.154L202.215 80L197.617 81.482Z" fill="#00B9F1"/>
<path fill-rule="evenodd" clip-rule="evenodd" d="M202.215 80L211.943 76.808L210.195 71.412L200.467 74.566L197.617 78.48L202.215 80ZM183.785 80L174.057 83.154L175.805 88.55L185.533 85.396L188.383 81.482L183.785 80Z" fill="#D63AFF"/>
<path fill-rule="evenodd" clip-rule="evenodd" d="M185.533 85.396L179.529 93.68L184.127 97.024L190.169 88.74V83.914L185.533 85.396ZM200.467 74.566L206.471 66.282L201.873 62.938L195.869 71.222V76.048L200.467 74.566Z" fill="#FB015B"/>
</g>
<g clip-path="url(#clip15_1_79)">
<path d="M262.226 56H235.774C229.824 56 225 60.8236 225 66.7738V93.2262C225 99.1764 229.824 104 235.774 104H262.226C268.176 104 273 99.1764 273 93.2262V66.7738C273 60.8236 268.176 56 262.226 56Z" fill="#6772E5"/>
<path fill-rule="evenodd" clip-rule="evenodd" d="M247.113 74.6214C247.113 73.4742 248.061 72.9588 249.59 72.9588C252.125 73.0136 254.612 73.6568 256.856 74.8375V68.0374C254.548 67.1322 252.086 66.6806 249.607 66.7073C243.688 66.7073 239.731 69.7998 239.731 75.0204C239.731 83.1008 250.837 81.7873 250.837 85.2788C250.837 86.6256 249.657 87.0578 248.044 87.0578C245.203 86.9012 242.437 86.0873 239.964 84.6803V91.6467C242.484 92.7357 245.199 93.3013 247.944 93.3093C254.013 93.3093 258.203 90.3166 258.203 84.9962C258.253 76.3339 247.113 77.8968 247.113 74.6214Z" fill="white"/>
</g>
<g clip-path="url(#clip16_1_79)">
<path d="M317.75 56H292.25C286.037 56 281 61.0368 281 67.25V92.75C281 98.9632 286.037 104 292.25 104H317.75C323.963 104 329 98.9632 329 92.75V67.25C329 61.0368 323.963 56 317.75 56Z" fill="black"/>
<g clip-path="url(#clip17_1_79)">
<path d="M316.875 80L305 91.875" stroke="white" stroke-width="2.5" stroke-linecap="round" stroke-linejoin="round"/>
<path d="M314.5 66.9375L291.938 89.5" stroke="white" stroke-width="2.5" stroke-linecap="round" stroke-linejoin="round"/>
</g>
</g>
</g>
<defs>
<filter id="filter0_d_1_79" x="236.062" y="8.8125" width="25.7867" height="31.9044" filterUnits="userSpaceOnUse" color-interpolation-filters="sRGB">
<feFlood flood-opacity="0" result="BackgroundImageFix"/>
<feColorMatrix in="SourceAlpha" type="matrix" values="0 0 0 0 0 0 0 0 0 0 0 0 0 0 0 0 0 0 127 0" result="hardAlpha"/>
<feOffset dy="0.75"/>
<feGaussianBlur stdDeviation="1.5"/>
<feColorMatrix type="matrix" values="0 0 0 0 0 0 0 0 0 0 0 0 0 0 0 0 0 0 0.15 0"/>
<feBlend mode="normal" in2="BackgroundImageFix" result="effect1_dropShadow_1_79"/>
<feBlend mode="normal" in="SourceGraphic" in2="effect1_dropShadow_1_79" result="shape"/>
</filter>
<linearGradient id="paint0_linear_1_79" x1="184.969" y1="13.875" x2="199.406" y2="34.7812" gradientUnits="userSpaceOnUse">
<stop stop-color="#32B1C1"/>
<stop offset="1" stop-color="#14C6B7"/>
</linearGradient>
<linearGradient id="paint1_linear_1_79" x1="225" y1="0" x2="273" y2="48" gradientUnits="userSpaceOnUse">
<stop stop-color="#9013FE"/>
<stop offset="1" stop-color="#6B11F4"/>
</linearGradient>
<linearGradient id="paint2_linear_1_79" x1="241.086" y1="12.9304" x2="252.851" y2="32.8283" gradientUnits="userSpaceOnUse">
<stop stop-color="white"/>
<stop offset="1" stop-color="#F1E5FC"/>
</linearGradient>
<linearGradient id="paint3_linear_1_79" x1="342.44" y1="8.26406" x2="364.336" y2="38.0012" gradientUnits="userSpaceOnUse">
<stop stop-color="#41D1FF"/>
<stop offset="1" stop-color="#BD34FE"/>
</linearGradient>
<linearGradient id="paint4_linear_1_79" x1="360.478" y1="5.95187" x2="364.439" y2="33.1238" gradientUnits="userSpaceOnUse">
<stop stop-color="#FFEA83"/>
<stop offset="0.0833333" stop-color="#FFDD35"/>
<stop offset="1" stop-color="#FFA800"/>
</linearGradient>
<clipPath id="clip0_1_79">
<rect width="498" height="104.25" fill="white"/>
</clipPath>
<clipPath id="clip1_1_79">
<rect width="48" height="48" fill="white"/>
</clipPath>
<clipPath id="clip2_1_79">
<rect width="48" height="48" fill="white" transform="translate(56.25)"/>
</clipPath>
<clipPath id="clip3_1_79">
<rect width="48" height="48" fill="white" transform="translate(112.5)"/>
</clipPath>
<clipPath id="clip4_1_79">
<rect width="48" height="48" fill="white" transform="translate(168.75)"/>
</clipPath>
<clipPath id="clip5_1_79">
<rect width="48" height="48" fill="white" transform="translate(225)"/>
</clipPath>
<clipPath id="clip6_1_79">
<rect width="48" height="48" fill="white" transform="translate(281.25)"/>
</clipPath>
<clipPath id="clip7_1_79">
<rect width="48" height="48" fill="white" transform="translate(337.5)"/>
</clipPath>
<clipPath id="clip8_1_79">
<rect width="48" height="48" fill="white" transform="translate(393.75)"/>
</clipPath>
<clipPath id="clip9_1_79">
<rect width="48" height="48" fill="white" transform="translate(450)"/>
</clipPath>
<clipPath id="clip10_1_79">
<rect width="48" height="48" fill="white" transform="translate(0 56.25)"/>
</clipPath>
<clipPath id="clip11_1_79">
<rect width="48" height="48" fill="white" transform="translate(56.25 56.25)"/>
</clipPath>
<clipPath id="clip12_1_79">
<rect width="48" height="48" fill="white" transform="translate(112.5 56.25)"/>
</clipPath>
<clipPath id="clip13_1_79">
<rect width="48" height="48" fill="white" transform="translate(169 56)"/>
</clipPath>
<clipPath id="clip14_1_79">
<rect width="38" height="38" fill="white" transform="translate(174 61)"/>
</clipPath>
<clipPath id="clip15_1_79">
<rect width="48" height="48" fill="white" transform="translate(225 56)"/>
</clipPath>
<clipPath id="clip16_1_79">
<rect width="48" height="48" fill="white" transform="translate(281 56)"/>
</clipPath>
<clipPath id="clip17_1_79">
<rect width="38" height="38" fill="white" transform="translate(286 61)"/>
</clipPath>
</defs>
</svg>
